<?xml version="1.0" encoding="UTF-8" standalone="no"?>
<!-- Created with Inkscape (http://www.inkscape.org/) -->

<svg
   xmlns:dc="http://purl.org/dc/elements/1.1/"
   xmlns:cc="http://creativecommons.org/ns#"
   xmlns:rdf="http://www.w3.org/1999/02/22-rdf-syntax-ns#"
   xmlns:svg="http://www.w3.org/2000/svg"
   xmlns="http://www.w3.org/2000/svg"
   xmlns:sodipodi="http://sodipodi.sourceforge.net/DTD/sodipodi-0.dtd"
   xmlns:inkscape="http://www.inkscape.org/namespaces/inkscape"
   width="392mm"
   height="72mm"
   viewBox="0 0 392 72"
   version="1.1"
   id="svg3756"
   inkscape:version="0.92.3 (2405546, 2018-03-11)"
   sodipodi:docname="photobowserbanner.svg">
  <defs
     id="defs3750">
    <clipPath
       clipPathUnits="userSpaceOnUse"
       id="clipPath4773">
      <path
         inkscape:connector-curvature="0"
         id="path4775"
         d="m 27.318076,224.46376 c 0,0 -4.791358,1.91654 -3.753231,-2.31583 0,0 4.791358,-4.87122 5.669774,-8.78415 0,0 0.159714,-2.87482 5.989199,-3.75324 5.829485,-0.87842 9.902139,3.91294 10.30142,4.79136 0,0 -2.156111,-0.71869 -4.072655,-0.0798 0,0 2.555391,3.91294 1.836687,4.15251 0,0 -2.79496,-1.75683 -3.992798,-1.19785 0,0 1.597118,1.51727 1.517264,2.15611 0,0 -3.673374,-2.07625 -6.787758,-0.63884 0,0 -4.871212,4.63165 -6.707902,5.66978 z"
         style="fill:none;stroke:#ffffff;stroke-width:0.22359668px;stroke-linecap:butt;stroke-linejoin:miter;stroke-opacity:1" />
    </clipPath>
  </defs>
  <sodipodi:namedview
     id="base"
     pagecolor="#ffffff"
     bordercolor="#666666"
     borderopacity="1.0"
     inkscape:pageopacity="0.0"
     inkscape:pageshadow="2"
     inkscape:zoom="0.7"
     inkscape:cx="616.49953"
     inkscape:cy="246.58898"
     inkscape:document-units="mm"
     inkscape:current-layer="g4681"
     showgrid="false"
     inkscape:window-width="1920"
     inkscape:window-height="1017"
     inkscape:window-x="-8"
     inkscape:window-y="-8"
     inkscape:window-maximized="1"
     inkscape:snap-grids="false"
     inkscape:snap-others="false"
     inkscape:snap-global="false" />
  <metadata
     id="metadata3753">
    <rdf:RDF>
      <cc:Work
         rdf:about="">
        <dc:format>image/svg+xml</dc:format>
        <dc:type
           rdf:resource="http://purl.org/dc/dcmitype/StillImage" />
        <dc:title />
      </cc:Work>
    </rdf:RDF>
  </metadata>
  <g
     inkscape:label="Layer 1"
     inkscape:groupmode="layer"
     id="layer1"
     transform="translate(0,-225)">
    <g
       id="g4681"
       transform="translate(0,27.970238)">
      <path
         inkscape:connector-curvature="0"
         id="path4741"
         d="m 22.155873,216.96466 c 0,0 0.319423,-12.6971 10.461131,-16.45033 0,0 3.673375,-1.59713 4.072655,-2.79498 0.159711,0.71872 0.319423,5.19065 0.159711,5.66979 0,0 2.954672,-1.27769 9.423005,3.03453 0,0 1.996399,1.35755 2.475534,1.11798 0,0 -1.836687,1.67698 -2.715103,1.75684 0,0 12.377675,4.07264 16.610042,2.63523 0,0 -2.156112,2.71511 -3.114383,3.2741 -0.958272,0.55899 4.95107,0.0798 4.95107,0.0798 0,0 -2.156111,6.70791 -8.30502,8.22516 -6.14891,1.51727 -6.228766,1.4374 -6.228766,1.4374 z"
         style="fill:#000000;stroke:#000000;stroke-width:0.22359668px;stroke-linecap:butt;stroke-linejoin:miter;stroke-opacity:1" />
      <path
         inkscape:connector-curvature="0"
         id="path4739"
         d="m 15.447972,223.11356 c 0,0 2.954669,-3.19425 5.829486,-5.58992 2.874813,-2.39567 17.169031,-2.95467 17.169031,-2.95467 0,0 16.769753,4.15251 13.974794,9.34314 -2.794958,5.19064 -29.067571,5.35036 -29.067571,5.35036 z"
         style="fill:#000000;stroke:#000000;stroke-width:0.22359668px;stroke-linecap:butt;stroke-linejoin:miter;stroke-opacity:1" />
      <path
         inkscape:connector-curvature="0"
         id="path4755"
         d="m 37.568073,223.59271 -0.319423,-3.91296 c 0,0 -1.197841,-1.51726 -4.392078,-0.39927 -3.194239,1.11798 -5.829486,5.58991 -5.829486,5.58991 0,0 0.319424,1.75683 2.555389,0.87841 2.235969,-0.87841 7.426607,-2.55538 7.985598,-2.15609 z"
         style="fill:#e6e6e6;stroke:#000000;stroke-width:0.224;stroke-linecap:butt;stroke-linejoin:miter;stroke-opacity:1;stroke-miterlimit:4;stroke-dasharray:none" />
      <path
         d="m 36.579836,223.60027 a 1.7716428,1.6445925 0 0 1 -1.768922,1.64459 1.7716428,1.6445925 0 0 1 -1.774355,-1.63954 1.7716428,1.6445925 0 0 1 1.763471,-1.64963 1.7716428,1.6445925 0 0 1 1.779773,1.63447"
         sodipodi:open="true"
         sodipodi:end="6.2770417"
         sodipodi:start="0"
         sodipodi:ry="1.6445925"
         sodipodi:rx="1.7716428"
         sodipodi:cy="223.60027"
         sodipodi:cx="34.808193"
         sodipodi:type="arc"
         id="path4759"
         style="fill:#000000;fill-opacity:1;stroke:#000000;stroke-width:0.22394882;stroke-miterlimit:4;stroke-dasharray:none;stroke-opacity:1" />
      <path
         inkscape:connector-curvature="0"
         id="path4743"
         d="m 27.396542,224.63083 c 0,0 -4.791359,1.91654 -3.753232,-2.31583 0,0 4.791359,-4.87122 5.669775,-8.78415 0,0 0.159712,-2.87482 5.989198,-3.75324 5.829484,-0.87842 9.90214,3.91294 10.301419,4.79136 0,0 -2.156111,-0.71869 -4.072654,-0.0798 0,0 2.55539,3.91294 1.836687,4.15251 0,0 -2.79496,-1.75683 -3.992799,-1.19785 0,0 1.597119,1.51727 1.517264,2.15611 0,0 -3.673374,-2.07625 -6.787758,-0.63884 0,0 -4.871212,4.63165 -6.7079,5.66978 z"
         style="fill:#000000;stroke:#ffffff;stroke-width:0.40000001;stroke-linecap:butt;stroke-linejoin:miter;stroke-miterlimit:4;stroke-dasharray:none;stroke-opacity:1" />
      <path
         inkscape:connector-curvature="0"
         id="path4749"
         d="m 20.878177,218.00278 c 0,0 -3.75323,-4.55179 -4.791358,-7.90574 0,0 -3.274094,5.11078 0.07986,12.45753 0.878411,0.47914 4.711497,-4.55179 4.711498,-4.55179 z"
         style="fill:#000000;stroke:#000000;stroke-width:0.22359668px;stroke-linecap:butt;stroke-linejoin:miter;stroke-opacity:1" />
      <path
         inkscape:connector-curvature="0"
         id="path4747"
         d="m 18.722065,222.23515 c 0,0 -0.878415,-1.67699 -0.319424,-2.23598 0,0 0.638848,-0.71869 -1.517262,-3.27408 0,0 -1.277697,-1.59712 -2.874816,-0.95828 -1.597118,0.63885 -1.517262,2.87482 -1.517262,2.87482 0,0 -1.676975,2.1561 -1.756832,3.11438 -0.07985,0.95827 1.517263,2.55538 1.517263,2.55538 l 4.551791,-0.1597 c 0,0 1.597117,-2.1561 1.916542,-1.91654 z"
         style="fill:#000000;stroke:#ffffff;stroke-width:0.4;stroke-linecap:butt;stroke-linejoin:miter;stroke-opacity:1;stroke-miterlimit:4;stroke-dasharray:none" />
      <path
         inkscape:connector-curvature="0"
         id="path4751"
         d="m 44.116261,217.28408 c 0,0 1.756834,-2.47554 3.673376,-2.31583 0,0 4.871216,6.62805 7.187037,7.66618 0,0 0.239569,3.91295 -3.274094,3.4338 0,0 -3.513663,-1.27769 -4.871214,-4.95107 0,0 -0.23957,-1.19783 -2.715105,-3.83308 z"
         style="fill:#000000;stroke:#ffffff;stroke-width:0.4;stroke-linecap:butt;stroke-linejoin:miter;stroke-opacity:1;stroke-miterlimit:4;stroke-dasharray:none" />
      <path
         inkscape:connector-curvature="0"
         id="path4753"
         d="m 47.949349,214.96825 c 0,0 10.780557,-2.95466 5.909342,-14.13451 -0.558991,0.39929 5.510062,-1.11797 6.867613,10.14171 0,0 0.159712,4.95107 -5.589917,11.57912 -5.74963,6.62805 -7.187038,-7.58632 -7.187038,-7.58632 z"
         style="fill:#000000;stroke:#ffffff;stroke-width:0.4;stroke-linecap:butt;stroke-linejoin:miter;stroke-opacity:1;stroke-miterlimit:4;stroke-dasharray:none" />
      <path
         d="m 35.896907,223.62137 a 1.0781205,1.0132711 0 0 1 -1.076464,1.01327 1.0781205,1.0132711 0 0 1 -1.079772,-1.01016 1.0781205,1.0132711 0 0 1 1.073148,-1.01637 1.0781205,1.0132711 0 0 1 1.083068,1.00703"
         sodipodi:open="true"
         sodipodi:end="6.2770417"
         sodipodi:start="0"
         sodipodi:ry="1.0132711"
         sodipodi:rx="1.0781205"
         sodipodi:cy="223.62137"
         sodipodi:cx="34.818787"
         sodipodi:type="arc"
         id="path4761"
         style="fill:#000000;fill-opacity:1;stroke:#000000;stroke-width:0.2571947;stroke-miterlimit:4;stroke-dasharray:none;stroke-opacity:1" />
      <path
         d="m 34.504686,223.14854 a 0.50114197,0.50114197 0 0 1 -0.500372,0.50115 0.50114197,0.50114197 0 0 1 -0.50191,-0.49961 0.50114197,0.50114197 0 0 1 0.498831,-0.50267 0.50114197,0.50114197 0 0 1 0.503441,0.49806"
         sodipodi:open="true"
         sodipodi:end="6.2770417"
         sodipodi:start="0"
         sodipodi:ry="0.50114197"
         sodipodi:rx="0.50114197"
         sodipodi:cy="223.14854"
         sodipodi:cx="34.003544"
         sodipodi:type="arc"
         id="path4763"
         style="fill:#ffffff;fill-opacity:1;stroke:#000000;stroke-width:0.22394882;stroke-miterlimit:4;stroke-dasharray:none;stroke-opacity:1" />
      <path
         inkscape:connector-curvature="0"
         id="path4769"
         d="m 11.295461,248.46783 c 0,0 2.914742,4.87122 3.673374,4.43201 0.758632,-0.43922 0.758632,-3.87301 0.758632,-3.87301 0,0 1.078056,1.11799 1.317623,0.75863 0.239567,-0.35936 0.79856,-0.79857 0.958272,-3.59353 0,0 1.237768,1.11799 1.39748,0.71872 0.159712,-0.39929 0.718703,-1.67698 0.519064,-2.91475 0,0 -0.159712,-2.23598 -1.038128,-2.07626 -0.878416,0.15971 -0.918344,0.15971 -0.918344,0.15971 z"
         style="fill:#000000;stroke:#000000;stroke-width:0.22359668px;stroke-linecap:butt;stroke-linejoin:miter;stroke-opacity:1" />
      <path
         inkscape:connector-curvature="0"
         id="path4771"
         d="m 26.867375,243.75632 c 0,0 2.874815,6.78777 3.513661,5.35036 0.638848,-1.4374 1.038129,-4.19244 1.197839,-8.50466 0.159712,-4.31222 0.998201,-0.19965 0.998201,-0.19965 0,0 3.873014,5.90934 4.511861,4.15251 0.638848,-1.75682 0.958273,-2.07624 1.038127,-4.67157 0,0 2.475536,1.75684 2.794961,1.15792 0.319424,-0.59892 0.479136,-0.31943 0.918343,-3.31403 0.439208,-2.99459 -11.339548,-1.27769 -11.339548,-1.27769 z"
         style="fill:#000000;stroke:#000000;stroke-width:0.22359668px;stroke-linecap:butt;stroke-linejoin:miter;stroke-opacity:1" />
      <path
         inkscape:connector-curvature="0"
         id="path4773"
         d="m 45.992878,244.43511 c 0,0 -4.511862,-3.07446 -4.511862,-2.1162 0,0.95828 1.157911,7.42662 2.116182,7.38669 0.958272,-0.0401 -0.319423,0.79855 -0.319423,0.79855 0,0 -4.511862,-4.19244 -4.871213,-3.5935 -0.359352,0.5989 -0.878416,0.99818 -0.359352,5.94925 0.519061,4.95107 -3.473736,-2.27589 -3.473736,-2.27589 0,0 -2.675173,-3.67336 -2.994599,-2.55539 -0.319424,1.11799 -0.838487,5.58992 0.03993,8.10539 0.878414,2.51546 15.372272,-3.35395 15.372272,-3.35395 0,0 0.319424,-8.34495 -0.998201,-8.34495 z"
         style="fill:#000000;stroke:#000000;stroke-width:0.22359668px;stroke-linecap:butt;stroke-linejoin:miter;stroke-opacity:1" />
      <path
         inkscape:connector-curvature="0"
         id="path4792"
         d="m 19.442196,254.62176 c 0,0 0.05647,-4.79967 0.790533,-4.12206 0.734067,0.67759 1.185799,1.41166 1.185799,1.41166 0,0 0,-1.07287 0.451736,-0.847 0.451731,0.22587 2.484535,1.46813 2.145734,1.75047 -0.3388,0.28232 -4.573802,1.80693 -4.573802,1.80693 z"
         style="fill:#000000;stroke:#000000;stroke-width:0.22359668px;stroke-linecap:butt;stroke-linejoin:miter;stroke-opacity:1" />
      <path
         inkscape:connector-curvature="0"
         id="path4765"
         d="m 19.950396,224.86382 c 0,0 5.138468,-1.41167 12.761472,1.58106 0,0 2.145735,0.39527 2.371602,0.6776 0.225867,0.28234 5.759603,-4.96906 16.149476,-3.2186 10.389871,1.75046 9.599337,12.53561 9.599337,12.53561 0,0 -0.3388,6.32427 -5.872536,9.37347 l -0.564666,0.33879 c 0,0 -0.621135,4.96908 -5.590203,8.41355 0,0 1.072866,7.56654 -8.131205,8.80879 0,0 -6.776004,4.00914 -12.083872,2.42808 0,0 -6.154871,5.98547 -13.66494,0.16939 0,0 -4.009137,-7.67946 1.750465,-11.011 5.759604,-3.33154 11.801541,-3.83973 11.801541,-3.83973 0,0 2.315135,-0.33881 8.808805,0.847 0,0 3.557401,-1.41168 5.138469,-1.29873 0,0 -0.677601,-1.80694 2.032801,-4.46087 2.710402,-2.65394 -1.976335,-9.42994 -1.976335,-9.42994 0,0 -1.298734,3.16213 -3.952668,4.235 0,0 -4.517336,0.3388 -6.832469,2.31513 0,0 -2.315137,1.07287 -3.95267,1.29873 0,0 -3.444468,2.82334 -12.422674,-3.61386"
         style="fill:#000000;stroke:#000000;stroke-width:0.22359668px;stroke-linecap:butt;stroke-linejoin:miter;stroke-opacity:1" />
      <path
         inkscape:connector-curvature="0"
         id="path4767"
         d="m 18.482262,243.10255 c 0,0 -0.734068,3.83975 -2.710402,4.63027 -1.976334,0.79054 -5.9290027,1.12934 -6.8889361,0.6776 -0.9599337,-0.45174 -7.2277351,-3.33153 -7.90533547,-10.67219 0,0 -1.46813434,-3.16215 3.33153587,-7.34068 0,0 0.282333,-2.82334 3.3315332,-3.95267 0,0 4.3479355,-6.6066 12.3097395,-1.58106"
         style="fill:#000000;stroke:#000000;stroke-width:0.22359668px;stroke-linecap:butt;stroke-linejoin:miter;stroke-opacity:1" />
    </g>
    <path
       style="fill:#000000;stroke:#000000;stroke-width:0.1900515px;stroke-linecap:butt;stroke-linejoin:miter;stroke-opacity:1"
       d="m 31.831635,252.8499 c 0,0 4.967508,-1.77582 5.663441,-1.39186 0.69593,0.38396 -2.63974,2.71174 -2.63974,2.71174 z"
       id="path4582"
       inkscape:connector-curvature="0" />
    <text
       xml:space="preserve"
       style="font-style:normal;font-variant:normal;font-weight:bold;font-stretch:normal;font-size:48.05138016px;line-height:1.25;font-family:Arial;-inkscape-font-specification:'Arial Bold';letter-spacing:0px;word-spacing:0px;fill:#000000;fill-opacity:1;stroke:none;stroke-width:1.20128453"
       x="67.00425"
       y="281.24371"
       id="text4586"><tspan
         sodipodi:role="line"
         id="tspan4584"
         x="67.00425"
         y="281.24371"
         style="font-style:normal;font-variant:normal;font-weight:bold;font-stretch:normal;font-family:Arial;-inkscape-font-specification:'Arial Bold';stroke-width:1.20128453">Photo Bowser</tspan></text>
    <flowRoot
       xml:space="preserve"
       id="flowRoot4588"
       style="font-style:normal;font-weight:normal;font-size:40px;line-height:1.25;font-family:sans-serif;letter-spacing:0px;word-spacing:0px;fill:#000000;fill-opacity:1;stroke:none"
       transform="translate(0,27.970238)"><flowRegion
         id="flowRegion4590"><rect
           id="rect4592"
           width="68.571426"
           height="50"
           x="350"
           y="86.524193" /></flowRegion><flowPara
         id="flowPara4594" /></flowRoot>  </g>
</svg>
